<svg width="156" height="106" viewBox="0 0 156 106" fill="none" xmlns="http://www.w3.org/2000/svg">
<path d="M0.0459971 27.1696L0.146114 29.6876L3.76925 29.5436L3.86214 31.8797C3.94501 33.9641 5.08788 35.2217 7.18622 35.1382C9.28456 35.0548 10.324 33.7104 10.2411 31.6261L10.0481 26.7719L0.0459971 27.1696ZM8.09184 29.3717L8.16359 31.1763C8.19807 32.0436 7.92544 32.5868 7.0861 32.6202C6.24677 32.6536 5.93186 32.1337 5.89738 31.2664L5.82563 29.4618L8.09184 29.3717Z" fill="white"/>
<path d="M8.90349 42.4276L4.83178 43.1983C3.85512 43.3832 3.33757 42.9824 3.17875 42.1433C3.04076 41.4143 3.32811 40.9752 4.38731 40.7747L8.44527 40.0066L8.0287 37.8057L3.2692 38.7065C1.65977 39.0112 0.940082 40.102 1.19783 41.4638C1.43476 42.7156 2.15644 43.2915 2.87325 43.5405L2.87846 43.568L1.86053 43.7607L2.2771 45.9616L9.32006 44.6286L8.90349 42.4276Z" fill="white"/>
<path d="M8.74629 51.4305C8.61996 50.3062 8.49067 49.8771 8.96847 49.7167C9.30028 49.6053 9.6151 49.8393 9.81558 50.4365C10.0472 51.1267 9.85327 51.5167 9.33138 51.7657L9.99965 53.7565C11.1719 53.2892 11.9883 52.07 11.2577 49.8934C10.6162 47.9822 9.31743 47.2367 8.08312 47.651C6.66299 48.1277 6.66597 49.5444 6.80139 50.7838C6.92335 51.939 7.05756 52.6028 6.47358 52.7988C6.08869 52.928 5.77823 52.663 5.57775 52.0658C5.29708 51.2296 5.47741 50.667 6.13202 50.3734L5.46375 48.3826C4.10572 48.9123 3.32925 50.2067 4.14453 52.6355C4.77716 54.5201 5.92554 55.3456 7.35894 54.8645C8.89852 54.3477 8.90426 52.869 8.74629 51.4305Z" fill="white"/>
<path d="M15.7048 60.2315C15.1944 59.2032 14.344 58.8437 13.5866 58.7976L13.5741 58.7726L17.0479 57.0487L16.0522 55.0422L7.08556 59.4919L8.0813 61.4984L11.7933 59.6563C12.6837 59.2144 13.3339 59.5482 13.6513 60.1878C14.0122 60.9151 13.8418 61.3905 12.8761 61.8697L9.17662 63.7056L10.1724 65.7121L14.5115 63.5588C15.9787 62.8306 16.3769 61.5859 15.7048 60.2315Z" fill="white"/>
<path d="M19.4561 65.2904C19.7995 65.8186 20.3483 66.0463 20.9 65.6877C21.4399 65.3367 21.4663 64.7352 21.1229 64.207C20.7796 63.6787 20.2191 63.4587 19.6791 63.8096C19.1275 64.1683 19.1128 64.7622 19.4561 65.2904ZM18.1297 64.8168L12.1198 68.7234L13.3407 70.6015L19.3505 66.6949L18.1297 64.8168Z" fill="white"/>
<path d="M25.0139 73.6879C24.2008 72.7071 23.2906 72.5524 22.5428 72.6813L22.5249 72.6597L23.3225 71.9986L21.893 70.274L16.3745 74.8486L17.8041 76.5731L20.9944 73.9285C21.7597 73.2941 22.4065 73.3944 22.9515 74.0518C23.4251 74.6231 23.3861 75.1464 22.5562 75.8344L19.3766 78.4701L20.8061 80.1946L24.5354 77.1032C25.7965 76.0579 25.8984 74.755 25.0139 73.6879Z" fill="white"/>
<path d="M31.7309 80.6353L31.2513 81.1642L31.2305 81.1454C31.277 80.6773 31.1865 79.8393 30.4087 79.1339C29.0502 77.9019 27.201 78.1904 25.8091 79.7253C24.4172 81.2602 24.3102 83.1287 25.6688 84.3607C26.4466 85.0661 27.2894 85.0745 27.7508 84.9826L27.7715 85.0014L27.4894 85.3125C26.69 86.194 26.0837 86.3624 25.337 85.6852C24.7562 85.1586 24.7133 84.6849 24.8729 84.3005L23.2136 82.7957C22.6291 83.8154 22.6169 85.3919 24.2969 86.9155C25.9044 88.3732 27.4558 88.684 29.0452 86.9313L33.3902 82.1401L31.7309 80.6353ZM27.2329 83.5112C26.5588 82.8999 26.6878 82.0908 27.4684 81.2301C28.249 80.3693 29.0416 80.1621 29.7157 80.7734C30.3898 81.3847 30.2609 82.1938 29.4803 83.0546C28.6997 83.9153 27.907 84.1226 27.2329 83.5112Z" fill="white"/>
<path d="M37.7754 93.8514L39.9807 95.0708L41.7353 91.8976L43.7813 93.0289C45.6069 94.0383 47.2747 93.7127 48.2909 91.8749C49.307 90.0371 48.696 88.4515 46.8705 87.4421L42.6191 85.0914L37.7754 93.8514ZM43.8286 88.1118L45.4091 88.9857C46.1687 89.4057 46.492 89.9204 46.0855 90.6555C45.6791 91.3906 45.0712 91.3905 44.3116 90.9705L42.7311 90.0966L43.8286 88.1118Z" fill="white"/>
<path d="M52.8046 92.1667C53.3887 92.4028 53.9689 92.2749 54.2155 91.6648C54.4568 91.0677 54.1336 90.5596 53.5495 90.3236C52.9654 90.0875 52.38 90.2284 52.1387 90.8255C51.8921 91.4355 52.2205 91.9307 52.8046 92.1667ZM51.4462 92.5388L48.7603 99.1846L50.8371 100.024L53.523 93.3782L51.4462 92.5388Z" fill="white"/>
<path d="M56.4914 94.4818L57.6656 98.4491L54.321 101.319L56.7509 101.987L58.5792 100.196L58.6062 100.203L59.2617 102.678L61.6915 103.346L60.2844 99.1692L63.3219 96.36L61.0271 95.729L59.3708 97.4225L59.3438 97.415L58.7862 95.1128L56.4914 94.4818Z" fill="white"/>
<path d="M68.7075 102.893C67.9164 102.789 67.2506 102.164 67.3828 101.165L72.4903 101.84C72.8318 99.2589 71.8316 97.319 69.4028 96.9977C67.1405 96.6984 65.5257 98.1229 65.2393 100.288C64.9455 102.509 66.1694 104.252 68.5288 104.564C70.458 104.82 71.6932 104.023 72.2709 102.645L70.0641 102.353C69.8794 102.681 69.4709 102.994 68.7075 102.893ZM69.2008 98.5244C70.0474 98.6364 70.5781 99.215 70.4477 100.2L67.5609 99.8185C67.6913 98.8331 68.3542 98.4124 69.2008 98.5244Z" fill="white"/>
<path d="M75.73 94.8505L75.5721 104.859L77.8118 104.895L77.9698 94.8859L75.73 94.8505Z" fill="white"/>
<path d="M86.0463 99.899C84.9221 99.7726 84.475 99.8034 84.4247 99.3019C84.3897 98.9536 84.6878 98.6986 85.3146 98.6358C86.039 98.5631 86.3762 98.8388 86.5031 99.403L88.5926 99.1934C88.3972 97.9467 87.3897 96.8799 85.1052 97.109C83.0993 97.3102 82.0841 98.411 82.214 99.7065C82.3635 101.197 83.7455 101.509 84.984 101.652C86.1375 101.789 86.8145 101.806 86.876 102.419C86.9165 102.823 86.5892 103.067 85.9623 103.13C85.0847 103.218 84.5762 102.917 84.4353 102.213L82.3458 102.423C82.5607 103.865 83.6504 104.909 86.1996 104.653C88.1777 104.455 89.2375 103.519 89.0866 102.014C88.9245 100.398 87.484 100.064 86.0463 99.899Z" fill="white"/>
<path d="M102.032 94.4307C100.727 94.5098 100.067 94.5295 99.8667 93.947C99.6844 93.4175 100.163 93.0011 100.878 92.7551C101.791 92.4407 102.546 92.6548 102.898 93.3332L105.281 92.5131C104.554 90.6164 102.419 90.0483 100.208 90.8091C98.1695 91.5107 96.8324 92.8741 97.5431 94.9392C98.1445 96.6866 99.8156 96.8962 101.608 96.8124C103.082 96.7493 104.16 96.5706 104.42 97.3252C104.584 97.8017 104.226 98.3099 103.339 98.6152C102.28 98.9797 101.279 98.9097 100.932 97.9036L98.5495 98.7237C99.2739 100.829 101.546 101.409 104.009 100.561C106.378 99.7456 107.349 98.0936 106.725 96.2801C106.028 94.2546 103.988 94.3055 102.032 94.4307Z" fill="white"/>
<path d="M108.664 89.6339C109.229 89.3555 109.52 88.8376 109.23 88.2473C108.945 87.6696 108.351 87.5722 107.786 87.8506C107.22 88.129 106.936 88.6595 107.22 89.2372C107.511 89.8275 108.099 89.9123 108.664 89.6339ZM108.037 90.895L111.205 97.325L113.214 96.3351L110.046 89.9051L108.037 90.895Z" fill="white"/>
<path d="M117.661 85.1094C116.59 85.8006 116.329 86.6861 116.368 87.4439L116.345 87.4591L115.783 86.5889L113.901 87.8042L117.79 93.8254L119.672 92.6101L117.424 89.1291C116.884 88.2941 117.06 87.6637 117.778 87.2003C118.401 86.7977 118.916 86.8984 119.501 87.8039L121.742 91.2732L123.623 90.0578L120.995 85.9888C120.106 84.6129 118.825 84.3574 117.661 85.1094Z" fill="white"/>
<path d="M127.082 81.3167L128.748 79.8835C127.524 78.7391 125.776 78.6175 124.194 79.9776C122.517 81.42 122.466 83.5505 123.918 85.2382C125.378 86.9365 127.483 87.1942 129.203 85.7154C130.763 84.3735 130.936 82.5996 129.917 81.2422L128.25 82.6754C128.617 83.2093 128.776 83.8665 128.097 84.4508C127.386 85.0624 126.492 84.7966 125.616 83.7776C124.74 82.7587 124.621 81.8265 125.322 81.224C126.001 80.6397 126.654 80.9272 127.082 81.3167Z" fill="white"/>
<path d="M135.495 76.9796C134.967 77.5776 134.077 77.7813 133.322 77.1139L136.733 73.2532C134.782 71.5289 132.614 71.276 130.992 73.1119C129.481 74.8219 129.761 76.9569 131.398 78.403C133.076 79.8863 135.206 79.844 136.782 78.0606C138.071 76.6024 138.099 75.1327 137.278 73.8841L135.804 75.5521C135.974 75.8888 136.005 76.4026 135.495 76.9796ZM132.146 74.1316C132.711 73.4917 133.487 73.3743 134.232 74.0325L132.304 76.2146C131.559 75.5564 131.58 74.7716 132.146 74.1316Z" fill="white"/>
<path d="M140.253 62.0178C139.084 61.3831 138.928 60.6135 139.363 59.8138C139.723 59.1495 140.318 58.9942 140.97 59.3483C142.089 59.9562 141.972 61.7565 142.411 63.9702C142.631 65.0614 143.103 66.2739 144.518 67.0422L148.072 60.497L146.387 59.5817L144.429 63.1865L144.405 63.1732C143.917 61.4903 144.197 58.3925 141.958 57.1766C140.334 56.2947 138.706 57.0039 137.711 58.837C136.461 61.1377 137.191 62.9039 139.184 63.9863L140.253 62.0178Z" fill="white"/>
<path d="M151.324 52.8389C152.304 50.1116 150.585 48.0657 148.002 47.138C145.42 46.2102 142.778 46.6893 141.798 49.4167C140.819 52.144 142.547 54.2078 145.129 55.1355C147.711 56.0633 150.344 55.5663 151.324 52.8389ZM149.519 52.1904C149.041 53.5212 147.739 53.5442 145.934 52.8957C144.129 52.2472 143.125 51.3959 143.603 50.0651C144.081 48.7344 145.392 48.7293 147.197 49.3778C149.003 50.0263 149.997 50.8597 149.519 52.1904Z" fill="white"/>
<path d="M154.436 40.9587C154.975 38.1112 152.955 36.3611 150.259 35.8508C147.563 35.3405 145.03 36.2288 144.491 39.0763C143.952 41.9237 145.983 43.6902 148.679 44.2005C151.375 44.7108 153.897 43.8061 154.436 40.9587ZM152.552 40.602C152.289 41.9913 151.006 42.2187 149.121 41.862C147.237 41.5054 146.112 40.8223 146.375 39.433C146.638 38.0436 147.932 37.8326 149.817 38.1893C151.701 38.5459 152.815 39.2126 152.552 40.602Z" fill="white"/>
<path d="M149.214 30.4473C147.885 30.4014 147.402 29.7824 147.433 28.8729C147.459 28.1174 147.922 27.7131 148.663 27.7387C149.936 27.7826 150.636 29.4457 152.017 31.2303C152.701 32.1084 153.665 32.9822 155.275 33.0377L155.531 25.5941L153.614 25.528L153.473 29.6276L153.445 29.6266C152.257 28.3389 151.124 25.4421 148.577 25.3543C146.73 25.2906 145.591 26.6521 145.519 28.7369C145.429 31.3533 146.87 32.6077 149.137 32.6859L149.214 30.4473Z" fill="white"/>
<circle cx="78" cy="30" r="30" fill="#199105"/>
<path d="M63.4707 37C67.344 37 69.9414 34.4669 69.9414 30.5C69.9414 26.557 67.344 24 63.4707 24C59.5746 24 57 26.557 57 30.5C57 34.443 59.5746 37 63.4707 37ZM63.4707 33.989C61.648 33.989 60.372 32.5312 60.372 30.5C60.372 28.4687 61.648 27.0349 63.4707 27.0349C65.2706 27.0349 66.5465 28.4687 66.5465 30.5C66.5465 32.5312 65.2706 33.989 63.4707 33.989Z" fill="white"/>
<path d="M78 37C81.8733 37 84.4707 34.4669 84.4707 30.5C84.4707 26.557 81.8733 24 78 24C74.1039 24 71.5293 26.557 71.5293 30.5C71.5293 34.443 74.1039 37 78 37ZM78 33.989C76.1773 33.989 74.9014 32.5312 74.9014 30.5C74.9014 28.4687 76.1773 27.0349 78 27.0349C79.7999 27.0349 81.0759 28.4687 81.0759 30.5C81.0759 32.5312 79.7999 33.989 78 33.989Z" fill="white"/>
<path d="M92.5293 37C96.4026 37 99 34.4669 99 30.5C99 26.557 96.4026 24 92.5293 24C88.6332 24 86.0586 26.557 86.0586 30.5C86.0586 34.443 88.6332 37 92.5293 37ZM92.5293 33.989C90.7066 33.989 89.4307 32.5312 89.4307 30.5C89.4307 28.4687 90.7066 27.0349 92.5293 27.0349C94.3293 27.0349 95.6052 28.4687 95.6052 30.5C95.6052 32.5312 94.3293 33.989 92.5293 33.989Z" fill="white"/>
</svg>
