<svg width="970" height="692" viewBox="0 0 970 692" fill="none" xmlns="http://www.w3.org/2000/svg">
<path d="M160.17 24.6999C143.97 8.49994 125.07 0.399933 101.67 0.399933H82.7703C59.3703 0.399933 40.4703 8.49994 25.1703 24.6999C8.9703 40.8999 1.7703 60.7 1.7703 82.2999V233.5C1.7703 258.7 2.6703 278.5 6.2703 291.1C9.8703 303.7 17.9703 320.8 32.3703 340.6C40.4703 355 49.4703 368.5 59.3703 382C75.5703 409 85.4703 427 90.8703 436.9C96.2703 446.8 98.9703 455.8 98.9703 463.9V610.6H85.4703L86.3703 452.2H0.8703V610.6C0.8703 632.2 8.0703 651.1 24.2703 667.3C40.4703 683.5 59.3703 691.6 82.7703 691.6H101.67C124.17 691.6 143.07 683.5 159.27 667.3C174.57 651.1 182.67 632.2 182.67 610.6V487.3C182.67 461.2 180.87 441.4 178.17 427.9C175.47 415.3 168.27 399.1 156.57 380.2C136.77 349.6 124.17 329.8 119.67 322.6C105.27 301 96.2703 286.6 92.6703 278.5C88.1703 270.4 86.3703 262.3 86.3703 254.2V81.4H98.0703V264.1H184.47V82.2999C184.47 60.7 176.37 40.8999 160.17 24.6999Z" fill="white"/>
<path d="M382.288 84.1V3.99994H195.987V84.1H245.487V688H332.788V84.1H382.288Z" fill="white"/>
<path d="M560.853 688L524.853 3.99994H397.953L363.753 688H449.253L456.453 440.5H467.253L474.453 688H560.853ZM461.853 120.1L467.253 356.8H455.553L461.853 120.1Z" fill="white"/>
<path d="M772.965 688V3.99994H685.665L684.765 318.1L648.765 3.99994H567.765V688H654.165V401.8L691.065 688H772.965Z" fill="white"/>
<path d="M945.034 24.6999C928.834 8.49994 909.934 0.399933 886.534 0.399933H867.634C844.234 0.399933 825.334 8.49994 810.034 24.6999C793.834 40.8999 786.634 60.7 786.634 82.2999V233.5C786.634 258.7 787.534 278.5 791.134 291.1C794.734 303.7 802.834 320.8 817.234 340.6C825.334 355 834.334 368.5 844.234 382C860.434 409 870.334 427 875.734 436.9C881.134 446.8 883.834 455.8 883.834 463.9V610.6H870.334L871.234 452.2H785.734V610.6C785.734 632.2 792.934 651.1 809.134 667.3C825.334 683.5 844.234 691.6 867.634 691.6H886.534C909.034 691.6 927.934 683.5 944.134 667.3C959.434 651.1 967.534 632.2 967.534 610.6V487.3C967.534 461.2 965.734 441.4 963.034 427.9C960.334 415.3 953.134 399.1 941.434 380.2C921.634 349.6 909.034 329.8 904.534 322.6C890.134 301 881.134 286.6 877.534 278.5C873.034 270.4 871.234 262.3 871.234 254.2V81.4H882.934V264.1H969.334V82.2999C969.334 60.7 961.234 40.8999 945.034 24.6999Z" fill="white"/>
</svg>
