<svg width="79" height="22" viewBox="0 0 79 22" fill="none" xmlns="http://www.w3.org/2000/svg">
<path d="M7.4 21.54C11.93 21.54 14.66 19.59 14.66 16.32C14.66 12.66 11.21 11.97 8.39 11.64C6.26 11.4 4.37 11.31 4.37 9.87C4.37 8.76 5.48 8.04 7.1 8.04C8.87 8.04 10.1 8.91 10.13 10.29H14.18C14.18 7.11 11.21 5.1 7.1 5.1C2.99 5.1 0.260002 7.08 0.260002 10.23C0.260002 14.19 4.04 14.64 6.86 14.94C8.72 15.12 10.31 15.3 10.31 16.71C10.31 17.88 9.2 18.6 7.52 18.6C5.33 18.6 4.01 17.49 4.01 15.87H0.0800018C0.0800018 19.41 2.84 21.54 7.4 21.54Z" fill="white"/>
<path d="M23.7078 21.48C24.5778 21.48 25.8378 21.3 26.7078 21V17.82C26.1978 17.94 25.5378 18.03 25.1178 18.03C23.8578 18.03 23.0778 17.16 23.0778 15.87V8.88H26.5878V5.64H23.0778L23.1078 0.779999H19.6278L18.7578 5.64H16.4778V8.88H18.6378V16.05C18.6378 19.29 20.6178 21.48 23.7078 21.48Z" fill="white"/>
<path d="M33.8874 21.39C36.0774 21.39 37.8474 20.58 38.8074 19.05H39.1074V21H43.5474V10.86C43.5474 7.38 40.7574 5.16 36.3774 5.16C32.0574 5.16 29.2674 7.32 29.2674 10.68H33.6174C33.5874 9.15 34.6974 8.25 36.3174 8.25C38.0874 8.25 39.1074 9.24 39.1074 10.71V11.34L35.8374 11.73C31.0074 12.33 28.5774 14.1 28.5774 16.98C28.5774 19.74 30.7374 21.39 33.8874 21.39ZM35.3574 18.48C33.8274 18.48 32.9274 17.76 32.9274 16.62C32.9274 15.57 33.7674 14.7 35.9574 14.43L39.1074 14.04V15.12C39.1074 17.04 37.5774 18.48 35.3574 18.48Z" fill="white"/>
<path d="M46.7354 21H51.1754V12.36C51.1754 10.41 52.6454 9 54.4154 9C56.2154 9 57.2954 10.32 57.2954 12.21V21H61.7354V11.58C61.7354 7.89 59.4254 5.19 55.9454 5.19C54.0854 5.19 52.6154 6.06 51.4754 7.8H51.1754V5.64H46.7354V21Z" fill="white"/>
<path d="M71.6188 21.54C76.1488 21.54 78.8788 19.59 78.8788 16.32C78.8788 12.66 75.4287 11.97 72.6087 11.64C70.4787 11.4 68.5888 11.31 68.5888 9.87C68.5888 8.76 69.6987 8.04 71.3187 8.04C73.0887 8.04 74.3188 8.91 74.3488 10.29H78.3988C78.3988 7.11 75.4287 5.1 71.3187 5.1C67.2087 5.1 64.4788 7.08 64.4788 10.23C64.4788 14.19 68.2588 14.64 71.0788 14.94C72.9387 15.12 74.5288 15.3 74.5288 16.71C74.5288 17.88 73.4188 18.6 71.7388 18.6C69.5488 18.6 68.2288 17.49 68.2288 15.87H64.2988C64.2988 19.41 67.0588 21.54 71.6188 21.54Z" fill="white"/>
</svg>
