<?xml version="1.0" encoding="UTF-8"?><svg id="Layer_2" xmlns="http://www.w3.org/2000/svg" viewBox="0 0 523.05 114.83"><defs><style>.cls-1{fill:#fff;}</style></defs><g id="Layer_1-2"><g><polygon class="cls-1" points="44.29 0 0 114.83 17.22 114.83 27.39 88.58 33.3 73 53.31 21.33 73.33 73 79.23 88.58 89.4 114.83 106.63 114.83 62.34 0 44.29 0"/><polygon class="cls-1" points="185.26 63.98 142.61 0 131.13 0 131.13 114.83 147.53 114.83 147.53 36.09 185.26 92.68 222.99 36.09 222.99 114.83 239.39 114.83 239.39 0 227.91 0 185.26 63.98"/><polygon class="cls-1" points="306.9 0 262.61 114.83 279.84 114.83 290.01 88.58 295.91 73 315.92 21.33 335.94 73 341.84 88.58 352.01 114.83 369.24 114.83 324.95 0 306.9 0"/><path class="cls-1" d="M458.07,114.83h18.04l-29.2-43.14c8.53-1.97,15.26-6.12,20.18-12.47,4.92-6.34,7.38-13.89,7.38-22.64,0-10.72-3.45-19.46-10.33-26.25-7.11-6.89-16.46-10.33-28.05-10.33h-43.64V15.65h16.4v-.07h27.23c6.34,0,11.59,2.08,15.75,6.23,4.16,4.05,6.23,9.24,6.23,15.58s-2.08,11.38-6.23,15.42c-4.16,4.16-9.41,6.23-15.75,6.23h-15.74s-11.49,.01-11.49,.01v-.06h-16.4v55.82h16.4v-40.18h22.03l27.18,40.18Z"/><rect class="cls-1" x="506.64" width="16.4" height="114.83"/></g></g></svg>