<?xml version="1.0" encoding="UTF-8"?><svg id="Layer_2" xmlns="http://www.w3.org/2000/svg" viewBox="0 0 494.74 136.98"><defs><style>.cls-1{fill:#fff;}</style></defs><g id="Layer_1-2"><g><g><g><path class="cls-1" d="M0,.8V136.98H48.26c13.76,0,24.96-11.2,24.96-24.96v-6.51h.79c16.92,0,30.69-13.76,30.69-30.69v-.79h6.51c13.76,0,24.96-11.19,24.96-24.96V.8H0ZM94.43,74.81c0,11.26-9.16,20.42-20.41,20.42h-.79v-21.21h21.2v.79Zm0-11.06h-31.47v31.48h-21.21V42.55h52.68v21.21Zm31.48-14.69c0,8.1-6.59,14.69-14.69,14.69h-6.51v-31.48H31.47V105.5h31.48v6.51c0,8.1-6.59,14.69-14.69,14.69H10.27V11.07H125.91V49.06Z"/><path class="cls-1" d="M198.83,52.38c-13.59,0-23.83,10.72-23.83,26.87s10.24,26.87,23.83,26.87c11.67,0,21.59-7.2,23.19-20.47h16.63c-1.28,21.11-18.07,35.19-39.83,35.19-22.87,0-39.83-17.11-39.83-41.58s16.95-41.58,39.83-41.58c21.11,0,37.59,13.43,39.51,33.43h-16.63c-1.6-12.16-11.36-18.72-22.87-18.72"/><path class="cls-1" d="M309.04,79.25c0-16.15-10.56-26.87-24.48-26.87s-24.47,10.72-24.47,26.87,10.56,26.87,24.47,26.87,24.48-10.72,24.48-26.87m-64.94,0c0-24.47,17.27-41.58,40.47-41.58s40.47,17.12,40.47,41.58-17.28,41.58-40.47,41.58-40.47-17.12-40.47-41.58"/></g><rect class="cls-1" x="390.77" y="39.26" width="16" height="79.97"/><polygon class="cls-1" points="452.99 89.64 431.56 119.23 412.85 119.23 444.19 77.81 414.45 39.26 433.16 39.26 454.27 66.45 474.42 39.26 493.14 39.26 463.39 78.29 494.74 119.23 476.02 119.23 452.99 89.64"/><path class="cls-1" d="M388.21,10.56c0-6.08,4.48-10.56,10.56-10.56s10.56,4.48,10.56,10.56-4.31,10.72-10.56,10.72-10.56-4.64-10.56-10.72"/></g><path class="cls-1" d="M357.5,39.26v-7.59c0-10.08,5.6-14.88,14.88-14.88,.07,0,7.39-.03,7.39-.03V2.08h-8.82c-17.12,0-29.43,10.39-29.43,29.11v8.08h-13.75v14.07h13.75V119.24h16V53.33h23.04v-14.07h-23.04Z"/></g></g></svg>