<?xml version="1.0" encoding="UTF-8"?><svg id="Layer_2" xmlns="http://www.w3.org/2000/svg" viewBox="0 0 280 285.6"><defs><style>.cls-1{fill:#fff;}</style></defs><g id="Layer_1-2"><g><path class="cls-1" d="M43.84,179.24s.09,0,.13,0c2.43-.07,4.34-2.1,4.26-4.53-.27-8.98,1.24-34.54,11.33-44.93,2.97-3.06,6.42-4.55,10.54-4.55,4.41,0,9.5,1.8,14.04,5.32-7.01,8.16-10.71,19.17-10.71,28.02,0,5.54,1.34,10.33,3.89,13.86,3.05,4.23,7.58,6.46,13.11,6.46,4.95,0,9.14-2.39,11.82-6.72,2.16-3.5,3.3-8.23,3.3-13.67,0-8.71-3.01-19.08-8.84-27.34,3.32-2.1,7.15-3.37,11.42-3.37,20.12,0,22.25,42.19,22.27,42.62,.09,2.37,2.04,4.23,4.39,4.23,.05,0,.11,0,.16,0,2.43-.09,4.32-2.12,4.23-4.55-.07-2.09-2.18-51.09-31.05-51.09-6.7,0-12.49,2.1-17.33,5.48-5.45-4.87-12.38-8.04-20.7-8.04-6.53,0-12.2,2.43-16.85,7.22-14.71,15.16-13.85,49.85-13.8,51.32,.07,2.38,2.02,4.26,4.39,4.26Zm52.92-20.74c0,3.76-.71,6.97-1.99,9.06-1.09,1.76-2.43,2.55-4.34,2.55-2.66,0-4.62-.92-5.98-2.81-1.44-2-2.23-5.09-2.23-8.72,0-6.94,2.87-15.36,8.04-21.64,3.87,5.4,6.5,12.62,6.5,21.56Z"/><path class="cls-1" d="M150.37,196.7c-2.37,.54-3.85,2.89-3.31,5.26,1.57,6.88,3.98,26.83-3.59,36.31-2.97,3.72-7.23,5.53-13.03,5.53-12.15,0-18.87-10.68-26-22-7.62-12.1-16.26-25.82-32.91-25.82h-.03c-7.34,0-13.59,2.65-18.56,7.85-13.67,14.29-12.58,43.45-12.52,44.68,.1,2.36,2.05,4.21,4.39,4.21,.06,0,.13,0,.19,0,2.43-.11,4.31-2.16,4.2-4.58-.32-7.37,.87-28.59,10.09-38.22,3.3-3.45,7.3-5.13,12.22-5.13h.02c11.8,0,18.14,10.06,25.47,21.71,7.71,12.24,16.44,26.11,33.44,26.11,8.53,0,15.22-2.97,19.9-8.84,11.73-14.7,5.56-42.56,5.29-43.74-.54-2.37-2.9-3.84-5.26-3.31Z"/><path class="cls-1" d="M219.98,99.85c2.43,0,4.4-1.97,4.4-4.4,0-21.86,.67-48.68,.68-48.95,.06-2.43-1.86-4.44-4.28-4.51-.04,0-.07,0-.11,0-2.38,0-4.33,1.9-4.39,4.28,0,.27-.68,27.2-.68,49.17,0,2.43,1.97,4.4,4.4,4.4Z"/><path class="cls-1" d="M200.91,172.56c14.26-.39,25.84-4.62,32.61-11.92,4.43-4.77,6.62-10.62,6.32-16.91-.76-16.21-24.18-23.51-40.58-23.51-39.24,0-42.29,22.61-42.29,29.54,0,4.53,1.9,8.77,5.49,12.27,6.95,6.77,19.86,10.56,35.68,10.56,.91,0,1.84-.01,2.77-.04Zm-32.32-16.82c-1.9-1.85-2.83-3.8-2.83-5.97,0-13.18,12.21-20.74,33.5-20.74,12.98,0,31.36,5.75,31.8,15.13,.18,3.93-1.16,7.47-3.99,10.51-5.15,5.55-14.53,8.79-26.41,9.11-14.31,.39-26.58-2.69-32.08-8.04Z"/><path class="cls-1" d="M215.03,194.98c-24.65,0-35.97,15.21-36.25,30.29-.1,5.41,2.01,10.39,6.11,14.4,5.89,5.77,15.61,9.12,26.29,9.12,.67,0,1.35-.01,2.02-.04,17.37-.68,28.23-12.28,27.67-29.56-.54-16.51-15.74-24.21-25.85-24.21Zm-2.16,44.98c-8.96,.36-17.32-2.17-21.82-6.57-2.36-2.31-3.53-4.99-3.47-7.96,.18-9.99,7.49-21.66,27.46-21.66,5.18,0,16.68,3.95,17.06,15.7,.19,5.93-1.3,19.79-19.23,20.49Z"/><path class="cls-1" d="M109,101.25c4.51,0,9-.09,13.39-.23,25.94-.87,44.54-5.27,55.69-13.13,4.99,6.13,6.86,12.35,7,12.85,.55,1.94,2.31,3.21,4.23,3.21,.39,0,.79-.05,1.19-.17,2.34-.66,3.7-3.08,3.04-5.42-.05-.16-2.44-8.33-9.06-16.33,4.25-5.15,6.27-11.33,6.03-18.53-.2-6.02-2.7-11.3-7.41-15.69-17.67-16.44-62.68-14.93-64.68-14.85-8.34,.28-29.66,1.62-47.89,8.06-26.62,9.39-31.77,24.41-31.41,35.35,.67,20.01,35.8,24.89,69.88,24.89Zm13.09-9.02c-.37,.01-.73,.02-1.1,.03,3.82-6.48,12.71-16.78,30.67-16.78,8.49,0,14.97,2.62,19.86,6.17-9.67,6.25-26.17,9.79-49.43,10.57Zm-48.64-42.93c17.09-6.03,37.36-7.3,45.27-7.56h.02c1.22-.05,2.66-.07,4.29-.07,14.38,0,42.88,2.16,54.08,12.58,2.98,2.78,4.49,5.9,4.61,9.55,.15,4.5-1.07,8.46-3.63,11.91-6.31-5.08-14.91-9-26.43-9-26.8,0-37.56,18.93-40.57,25.74-38.41,.16-62.84-6.01-63.19-16.37-.39-11.64,8.2-20.65,25.55-26.77Z"/><path class="cls-1" d="M238.89,0H41.11C18.44,0,0,18.44,0,41.11V244.48c0,22.67,18.44,41.11,41.11,41.11H238.89c22.67,0,41.11-18.44,41.11-41.11V41.11c0-22.67-18.44-41.11-41.11-41.11Zm31.58,244.48c0,17.41-14.17,31.58-31.58,31.58H41.11c-17.41,0-31.58-14.17-31.58-31.58V41.11c0-17.41,14.17-31.58,31.58-31.58H238.89c17.41,0,31.58,14.17,31.58,31.58V244.48Z"/></g></g></svg>