<?xml version="1.0" encoding="UTF-8"?><svg id="Layer_2" xmlns="http://www.w3.org/2000/svg" viewBox="0 0 545.45 175.44"><defs><style>.cls-1{fill:#fff;}</style></defs><g id="Layer_1-2"><g><path class="cls-1" d="M95.31,20.57h-24.64s3.41-19.03,3.41-19.03h72.38s-3.3,19.03-3.3,19.03h-24.64s-10.56,59.73-10.56,59.73h-23.21s10.56-59.73,10.56-59.73Z"/><path class="cls-1" d="M145.14,47.85L153.39,1.54h23.21s-8.03,45.65-8.03,45.65c-1.76,9.68,2.53,15.73,10.78,15.73,8.36,0,15.07-6.38,16.61-15.84L204.1,1.54h23.21s-8.25,46.42-8.25,46.42c-3.63,20.9-20.79,33.99-42.68,33.99-22.11,0-34.76-13.2-31.24-34.1Z"/><path class="cls-1" d="M239.3,1.54h39.6c19.25,0,30.14,10.89,27.28,27.06-2.2,12.76-11.99,21.67-23.87,23.76l-.99,.22,18.37,27.72h-25.85s-15.07-25.96-15.07-25.96h-5.61s-4.51,25.96-4.51,25.96h-23.21S239.3,1.54,239.3,1.54Zm28.82,37.73c7.48,0,13.75-4.07,14.96-10.78,1.1-6.38-3.63-10.23-11-10.23h-12.54s-3.63,21.01-3.63,21.01h12.21Z"/><path class="cls-1" d="M320.81,1.54h40.37c18.59,0,28.16,8.69,25.85,21.89-1.54,8.14-7.48,14.08-14.3,16.17l-.33,1.1c7.37,2.2,12.1,9.13,10.45,18.59-2.42,13.42-14.85,21.01-33.22,21.01h-42.68S320.81,1.54,320.81,1.54Zm26.51,62.03c6.16,0,11.44-3.52,12.32-8.25,.77-4.62-3.19-7.92-9.35-7.92h-14.3s-2.86,16.17-2.86,16.17h14.19Zm3.85-30.47c5.94,0,10.67-3.19,11.44-7.59,.77-4.29-2.75-7.26-8.69-7.26h-12.76s-2.64,14.85-2.64,14.85h12.65Z"/><path class="cls-1" d="M391.87,40.7C396.27,15.73,416.83,0,443.01,0c26.4,0,41.58,15.95,37.18,41.14-4.51,24.97-24.97,40.81-51.26,40.81-26.4,0-41.47-16.06-37.07-41.25Zm65.12,0c2.31-13.09-4.62-21.78-16.94-21.78-12.43,0-22.66,8.91-24.97,22.22-2.42,13.09,4.51,21.78,16.83,21.78,12.54,0,22.66-8.8,25.08-22.22Z"/><path class="cls-1" d="M13.86,95.04H50.38c20.68,0,31.68,11.11,28.71,28.16-3.08,16.83-17.82,27.72-38.61,27.72h-13.31s-4.07,22.88-4.07,22.88H0S13.86,95.04,13.86,95.04Zm26.95,39.16c7.92,0,13.86-4.51,15.07-11.44,1.1-6.6-3.08-11-10.89-11h-10.89s-3.96,22.44-3.96,22.44h10.67Z"/><path class="cls-1" d="M104.28,95.04h33.99s10.89,78.75,10.89,78.75h-23.98s-1.54-11.99-1.54-11.99h-28.27s-5.83,11.99-5.83,11.99h-23.98s38.72-78.76,38.72-78.76Zm17.82,50.27l-3.74-30.58h-1.1s-14.41,30.58-14.41,30.58h19.25Z"/><path class="cls-1" d="M154.44,147.73l21.78,.22c-1.1,6.6,3.52,10.78,12.87,10.78,7.59,0,12.98-2.86,13.86-7.81,.99-5.61-5.17-6.82-12.87-7.92-13.31-1.87-33.66-3.63-30.03-23.87,2.75-15.51,17.93-25.63,38.61-25.63,21.01,0,33,11.33,30.14,27.61l-21.01-.22c1.32-6.93-3.19-10.78-11-10.78-7.37,0-12.54,3.19-13.31,7.7-.99,5.83,6.49,6.82,15.4,8.03,13.09,1.98,30.8,4.95,27.5,24.09-2.75,15.51-18.92,25.52-40.7,25.52-21.67,0-33.99-11.44-31.24-27.72Z"/><path class="cls-1" d="M235.83,134.2c4.29-24.31,25.19-40.7,49.83-40.7,21.34,0,35.75,12.65,34.87,31.13l-21.78,2.09c-.33-8.36-6.82-14.3-15.29-14.3-12.21,0-22.11,8.91-24.42,22.22-2.31,13.09,4.29,21.78,16.17,21.78,8.58,0,17.38-6.05,20.68-14.3l21.34,2.75c-5.28,18.26-24.09,30.58-45.65,30.58-24.97,0-40.04-16.72-35.75-41.25Z"/><path class="cls-1" d="M350.67,95.04h33.99s10.89,78.75,10.89,78.75h-23.98s-1.54-11.99-1.54-11.99h-28.27s-5.83,11.99-5.83,11.99h-23.98s38.72-78.76,38.72-78.76Zm17.82,50.27l-3.74-30.58h-1.1s-14.41,30.58-14.41,30.58h19.25Z"/><path class="cls-1" d="M416.78,95.04h23.21s-10.45,58.96-10.45,58.96h33.99s-3.52,19.8-3.52,19.8h-57.09s13.86-78.75,13.86-78.75Z"/><path class="cls-1" d="M470.68,147.73l21.78,.22c-1.1,6.6,3.52,10.78,12.87,10.78,7.59,0,12.98-2.86,13.86-7.81,.99-5.61-5.17-6.82-12.87-7.92-13.31-1.87-33.66-3.63-30.03-23.87,2.75-15.51,17.93-25.63,38.61-25.63,21.01,0,33,11.33,30.14,27.61l-21.01-.22c1.32-6.93-3.19-10.78-11-10.78-7.37,0-12.54,3.19-13.31,7.7-.99,5.83,6.49,6.82,15.4,8.03,13.09,1.98,30.8,4.95,27.5,24.09-2.75,15.51-18.92,25.52-40.7,25.52-21.67,0-33.99-11.44-31.24-27.72Z"/></g></g></svg>