<?xml version="1.0" encoding="UTF-8"?><svg id="Layer_2" xmlns="http://www.w3.org/2000/svg" viewBox="0 0 479.65 258.03"><defs><style>.cls-1{fill:#fff;}</style></defs><g id="Layer_1-2"><g><path class="cls-1" d="M287.88,188.99c3.99,0,6.92-.94,8.8-2.82,1.88-1.88,2.82-4.4,2.82-7.56v-3.05c0-3.16-.94-5.68-2.82-7.56-1.88-1.88-4.81-2.82-8.8-2.82s-6.92,.94-8.8,2.82-2.82,4.4-2.82,7.56v3.05c0,3.16,.94,5.68,2.82,7.56,1.88,1.88,4.81,2.82,8.8,2.82Z"/><path class="cls-1" d="M304.92,218.61c-1.58-1.18-4.44-1.76-8.57-1.76h-20.19c-2.86,1.36-4.29,3.56-4.29,6.59,0,2.2,.92,4.09,2.76,5.68,1.84,1.59,4.91,2.39,9.19,2.39h9.14c4.66,0,8.22-.7,10.66-2.1,2.44-1.4,3.67-3.43,3.67-6.08,0-1.97-.79-3.54-2.37-4.72Z"/><path class="cls-1" d="M303.85,78.79c0-4.59-1.3-8.25-3.89-11-2.59-2.74-6.04-4.12-10.32-4.12-2.18,0-4.19,.38-6.04,1.13-1.84,.75-3.42,1.82-4.74,3.21-1.32,1.39-2.35,3.03-3.1,4.91-.75,1.88-1.13,3.95-1.13,6.2v.79h29.22v-1.13Z"/><path class="cls-1" d="M360.86,103.09V0H0V154.93H98.53v103.09H479.65V103.09h-118.79Zm-96.66-30.85c1.31-3.76,3.16-6.97,5.53-9.64,2.37-2.67,5.25-4.72,8.63-6.15,3.38-1.43,7.14-2.14,11.28-2.14s7.74,.7,11.05,2.09c3.31,1.39,6.13,3.37,8.46,5.92,2.33,2.56,4.12,5.6,5.36,9.14,1.24,3.54,1.86,7.45,1.86,11.73v4.62h-41.74v1.91c0,4.56,1.43,8.28,4.29,11.15,2.86,2.88,6.81,4.31,11.84,4.31,3.76,0,6.97-.8,9.64-2.41,2.67-1.61,4.83-3.75,6.49-6.44l7.67,6.79c-1.96,3.39-4.95,6.26-8.97,8.6-4.02,2.34-9.04,3.51-15.06,3.51-4.44,0-8.42-.72-11.96-2.14-3.54-1.43-6.51-3.46-8.91-6.09-2.41-2.63-4.25-5.81-5.53-9.53-1.28-3.72-1.92-7.91-1.92-12.58s.66-8.87,1.97-12.63Zm-108.91-36.21c0-1.88,.62-3.46,1.86-4.74,1.24-1.28,3.4-1.92,6.49-1.92s5.36,.64,6.6,1.92c1.24,1.28,1.86,2.86,1.86,4.74v2.37c0,1.88-.62,3.46-1.86,4.74-1.24,1.28-3.4,1.92-6.49,1.92s-5.36-.64-6.6-1.92c-1.24-1.28-1.86-2.86-1.86-4.74v-2.37Zm-44.72,77.83h-14.33l-10.04-40.72-5.87-23.92h-.23l-5.98,23.92-10.27,40.72h-14.33L30.93,35.13h12.97l8.01,37.9,5.53,26.17h.34l6.32-26.17,9.36-37.9h14.21l9.25,37.9,6.2,26.06h.34l5.75-26.06,8.23-37.9h12.52l-19.4,78.74Zm27.13-10.04h19.85v-38.13h-19.85v-10.04h32.15v48.17h18.61v10.04h-50.76v-10.04Zm52.11,112.45h-16.24l-23.12-60.58h-1.02v60.58h-11.05v-78.74h16.24l23.12,60.58h1.02v-60.58h11.05v78.74Zm8.6-112.23l7.56-6.77c2.56,2.78,5.43,4.91,8.63,6.37,3.2,1.47,6.97,2.2,11.34,2.2,3.99,0,7.2-.68,9.64-2.03,2.44-1.35,3.67-3.46,3.67-6.32,0-1.2-.23-2.22-.68-3.05-.45-.83-1.09-1.5-1.92-2.03-.83-.53-1.79-.94-2.88-1.24-1.09-.3-2.24-.53-3.44-.68l-9.25-1.47c-2.26-.3-4.55-.79-6.88-1.47-2.33-.68-4.42-1.64-6.26-2.88-1.84-1.24-3.35-2.84-4.51-4.79-1.17-1.95-1.75-4.44-1.75-7.45,0-5.94,2.27-10.45,6.82-13.54,4.55-3.08,10.55-4.62,17.99-4.62,5.41,0,10.1,.81,14.04,2.43,3.95,1.62,7.24,3.85,9.87,6.71l-6.88,7.22c-1.51-1.73-3.65-3.33-6.43-4.79-2.78-1.47-6.47-2.2-11.05-2.2-8.2,0-12.3,2.59-12.3,7.78,0,2.48,.88,4.19,2.65,5.13,1.77,.94,3.85,1.56,6.26,1.86l9.25,1.47c2.33,.38,4.64,.87,6.94,1.47,2.29,.6,4.36,1.52,6.2,2.76,1.84,1.24,3.35,2.84,4.51,4.79,1.17,1.96,1.75,4.44,1.75,7.45,0,5.87-2.28,10.47-6.82,13.82-4.55,3.35-10.81,5.02-18.78,5.02-6.32,0-11.75-1.02-16.3-3.05-4.55-2.03-8.22-4.74-11-8.12Zm38.48,34.39v2.37c0,1.88-.62,3.46-1.86,4.74-1.24,1.28-3.4,1.92-6.49,1.92s-5.36-.64-6.6-1.92c-1.24-1.28-1.86-2.86-1.86-4.74v-2.37c0-1.88,.62-3.46,1.86-4.74,1.24-1.28,3.4-1.92,6.49-1.92s5.36,.64,6.6,1.92c1.24,1.28,1.86,2.86,1.86,4.74Zm16.36,77.83h-50.76v-10.04h19.85v-38.13h-19.85v-10.04h32.15v48.17h18.61v10.04Zm57.99,19.63c-5.04,2.86-12.71,4.29-23.01,4.29-5.04,0-9.27-.32-12.69-.96-3.42-.64-6.2-1.56-8.35-2.76-2.14-1.2-3.69-2.67-4.62-4.4-.94-1.73-1.41-3.69-1.41-5.87,0-3.16,.88-5.62,2.65-7.39,1.77-1.77,4.27-3.06,7.5-3.89v-1.13c-1.96-.75-3.52-1.8-4.68-3.16-1.17-1.35-1.75-3.12-1.75-5.3,0-2.86,.98-5.02,2.93-6.49,1.96-1.47,4.47-2.58,7.56-3.33v-.56c-3.54-1.65-6.28-3.99-8.24-6.99-1.96-3.01-2.93-6.62-2.93-10.83,0-3.08,.56-5.88,1.69-8.4,1.13-2.52,2.72-4.66,4.79-6.43,2.07-1.77,4.55-3.14,7.44-4.12,2.89-.98,6.15-1.47,9.76-1.47,4.06,0,7.71,.64,10.94,1.92v-1.92c0-2.26,.64-4.13,1.92-5.64,1.28-1.5,3.23-2.26,5.87-2.26h10.6v9.7h-13.54v2.71c2.56,1.73,4.51,3.93,5.87,6.6,1.35,2.67,2.03,5.77,2.03,9.31,0,3.08-.56,5.89-1.69,8.4-1.13,2.52-2.73,4.66-4.79,6.43-2.07,1.77-4.55,3.12-7.45,4.06-2.9,.94-6.15,1.41-9.76,1.41-2.56,0-4.96-.23-7.22-.68-1.35,.38-2.71,1.02-4.06,1.92-1.35,.9-2.03,2.14-2.03,3.72,0,1.8,.86,2.93,2.59,3.38,1.73,.45,3.87,.68,6.43,.68h13.09c7.82,0,13.46,1.49,16.92,4.46,3.46,2.97,5.19,6.86,5.19,11.68,0,6.02-2.52,10.45-7.56,13.31Zm66.87-19.63h-12.3v-35.65c0-9.25-4.02-13.87-12.07-13.87-1.58,0-3.12,.21-4.62,.62-1.5,.41-2.86,1.03-4.06,1.86-1.2,.83-2.16,1.88-2.88,3.16-.72,1.28-1.07,2.75-1.07,4.4v39.48h-12.3v-83.47h12.3v35.19h.56c.6-1.5,1.37-2.95,2.31-4.34,.94-1.39,2.09-2.59,3.44-3.61,1.35-1.02,2.93-1.82,4.74-2.43,1.81-.6,3.91-.9,6.32-.9,5.87,0,10.6,1.92,14.21,5.75,3.61,3.84,5.41,9.29,5.41,16.36v37.45Zm64.94-48.17h-24.82v38.13h24.82v10.04h-22.22c-5.12,0-8.87-1.37-11.28-4.11-2.41-2.74-3.61-6.28-3.61-10.64v-33.42h-17.94v-10.04h12.75c2.18,0,3.72-.43,4.62-1.3,.9-.86,1.35-2.43,1.35-4.68v-14.55h11.51v20.53h24.82v10.04Z"/></g></g></svg>