<?xml version="1.0" encoding="UTF-8"?><svg id="Layer_2" xmlns="http://www.w3.org/2000/svg" viewBox="0 0 625.77 187.04"><defs><style>.cls-1{fill:#fff;}</style></defs><g id="Layer_1-2"><g><g><path class="cls-1" d="M114.03,187.04l-27.27-35.61c48.22-36.96,49.13-106.14,49.13-106.82h44.62c.23,3.83-.45,91.72-66.48,142.42"/><rect class="cls-1" x="50.03" width="86.31" height="44.62"/></g><g><path class="cls-1" d="M264.6,146.72c-21.14,0-31.22-14-31.5-35.98,0-.56,.56-1.12,1.12-1.12h14.42c.56,0,1.12,.56,1.12,1.12,.14,13.72,3.92,21.84,14.98,21.84s14.7-7.84,14.7-22.96l.14-29.68-.42-32.2c0-.56,.56-1.12,1.12-1.12h15.68c.56,0,1.12,.56,1.12,1.12l-.42,32.2v29.82c.14,24.5-10.5,36.96-32.06,36.96Z"/><path class="cls-1" d="M310.48,110.88c-.56,0-1.12-.56-1.12-1.12v-10.22c0-.56,.56-1.12,1.12-1.12h32.9c.56,0,1.12,.56,1.12,1.12v10.22c0,.56-.56,1.12-1.12,1.12h-32.9Z"/><path class="cls-1" d="M404.22,125.02l-12.18-18.34h-17.64l.28,36.82c0,.56-.56,1.12-1.12,1.12h-15.12c-.56,0-1.12-.56-1.12-1.12l.42-48.44-.42-47.32c0-.56,.56-1.12,1.12-1.12h37.1c23.38,0,37.24,10.08,37.24,29.96,0,14.98-8.4,24.64-22.54,28.42l24.92,38.64c.28,.42,0,.98-.56,.98h-17.78c-.7,0-1.4-.42-1.68-.98l-10.92-18.62Zm-7.7-65.24h-21.98l-.28,33.6h22.68c10.92,0,19.18-4.76,19.18-16.52s-7.14-17.08-19.6-17.08Z"/><path class="cls-1" d="M446.19,65.1c-.56,0-1.12-.56-1.12-1.12v-14.42c0-.56,.56-1.12,1.12-1.12h14.84c.56,0,1.12,.56,1.12,1.12v14.42c0,.56-.56,1.12-1.12,1.12h-14.84Zm0,79.52c-.56,0-1.12-.56-1.12-1.12l.28-35.42-.28-34.44c0-.56,.56-1.12,1.12-1.12h14.98c.56,0,1.12,.56,1.12,1.12l-.42,34.44,.42,35.42c0,.56-.56,1.12-1.12,1.12h-14.98Z"/><path class="cls-1" d="M527.49,144.62c-.56,0-1.12-.56-1.12-1.12l.42-8.82c-4.9,7.14-12.46,11.34-22.12,11.34-20.02,0-30.52-16.24-30.52-37.24s11.48-37.66,30.8-37.66c9.38,0,16.66,3.64,21.56,10.36l-.14-33.74c0-.56,.56-1.12,1.12-1.12h14.84c.56,0,1.12,.56,1.12,1.12l-.28,45.5,.28,50.26c0,.56-.56,1.12-1.12,1.12h-14.84Zm-18.34-10.36c11.34,0,17.92-8.4,18.06-25.06,.14-16.8-6.3-26.18-17.64-26.32-12.32-.28-18.34,9.38-18.34,24.92,0,16.66,6.16,26.46,17.92,26.46Z"/><path class="cls-1" d="M623.11,119.98c.56,0,1.12,.56,.98,1.12-1.96,13.86-13.86,25.2-33.18,25.2-23.24,0-35.7-15.54-35.7-37.52s13.3-37.94,35.14-37.94,35,15.12,35.42,39.76c0,.56-.56,1.12-1.12,1.12h-52.64c.7,15.4,7,22.68,19.18,22.68,8.82,0,14.56-4.34,16.52-13.3,.14-.7,.84-1.12,1.4-1.12h14Zm-32.62-37.38c-10.08,0-16.1,6.16-17.92,17.78h35c-.7-9.38-6.02-17.78-17.08-17.78Z"/></g><path class="cls-1" d="M58.91,115.31c-16.78,7.31-36.57,10.89-58.91,10.89v44.62c32.62,0,61.69-6.43,86.34-19.06l-27.43-36.45Z"/></g></g></svg>