<?xml version="1.0" encoding="UTF-8"?><svg id="Layer_2" xmlns="http://www.w3.org/2000/svg" viewBox="0 0 426.48 391.18"><defs><style>.cls-1{fill:#fff;}</style></defs><g id="Layer_1-2"><g><path class="cls-1" d="M211.3,73.25c-27.59,0-50.04,22.48-50.04,50.11s22.45,50.11,50.04,50.11,50.04-22.48,50.04-50.11-22.45-50.11-50.04-50.11Zm44.93,50.11c0,24.81-20.16,45-44.93,45s-44.93-20.19-44.93-45,20.16-45,44.93-45,44.93,20.19,44.93,45Z"/><path class="cls-1" d="M211.3,97.97c-13.98,0-25.35,11.39-25.35,25.39s11.37,25.38,25.35,25.38,25.35-11.38,25.35-25.38-11.37-25.39-25.35-25.39Zm20.24,25.39c0,11.17-9.08,20.26-20.24,20.26s-20.24-9.09-20.24-20.26,9.08-20.27,20.24-20.27,20.24,9.1,20.24,20.27Z"/><path class="cls-1" d="M211.3,112.49c-5.98,0-10.85,4.87-10.85,10.87s4.87,10.86,10.85,10.86,10.85-4.87,10.85-10.86-4.87-10.87-10.85-10.87Zm6.49,10.87c0,3.58-2.91,6.5-6.49,6.5s-6.49-2.92-6.49-6.5,2.91-6.5,6.49-6.5,6.49,2.92,6.49,6.5Z"/><path class="cls-1" d="M367.32,233.61l.18-.23-1.93-1.59c-.16-.14-16.31-13.74-25.03-41.18,9.6-2.38,17.57-4.58,19.15-5.02l3.99-1.12-2.79-3.06c-.48-.53-11.5-12.55-23.93-20.74,12.29-4.79,23.98-9.9,25.34-10.5l3.7-1.63-3.06-2.64c-.49-.42-11.64-10.01-24.7-16.32,10.96-5.96,20.9-11.85,22.06-12.54l3.56-2.12-3.5-2.23c-.46-.29-11.02-6.98-23.08-11.77,8.82-8,16.88-14.63,16.96-14.7l2.41-1.98-2.42-1.98c-.37-.3-8.7-7-19.7-8.52,7.44-12.36,12.95-26.01,13.19-26.61l1.29-3.21-3.44-.29c-.5-.04-11.91-.99-24.85,.89,3.82-11.97,6.86-22.84,6.89-22.95l1.12-4-4.07,.8c-.92,.18-21.85,4.39-35.92,12.81,.72-13.65,.87-26.9,.87-27.04l.04-4.15-3.72,1.83c-.67,.33-15.67,7.75-27.07,17.65,.27-7.88,.35-14.05,.37-15.33l.04-4.15-3.73,1.83c-.62,.3-14.55,7.19-25.78,16.55,.24-7.35,.32-13.03,.33-14.23l.04-4.15-3.73,1.83c-.62,.31-14.68,7.25-25.95,16.7,.22-6.74,.31-12.11,.34-14.25l.04-3.67-3.37,1.08c-.18,.06-18.04,5.98-29.04,22.63-4.35,.45-17.3,2.35-30.53,9.81-14.38,8.11-31.47,24.5-31.96,56.6-13.15,.84-24.27,3.33-33.06,7.42-10.79,5.03-36.82,19.79-45.5,48.26-6.49,21.29-1.77,45.35,14.03,71.53l2.98,4.93,1.65-5.52s1.47-4.58,6.46-10.52c5.81-.47,42.89-3.16,87.82,.32,58.07,4.5,104.11,16.92,136.92,36.91-9,13.79-16.84,24.77-18.24,26.72l-.02,.03c-13.65,16.23-30.34,19.52-45.78,9.03-11.77-8-14.86-24.12-6.89-35.93,3.01-4.47,7.58-7.49,12.86-8.5,5.27-1.02,10.62,.09,15.05,3.1,7.11,4.84,8.98,14.58,4.16,21.72-1.79,2.66-4.5,4.45-7.64,5.05-3.12,.61-6.3-.05-8.94-1.84-4.14-2.81-5.22-8.48-2.42-12.63,1.01-1.49,2.53-2.5,4.3-2.84,1.76-.34,3.55,.03,5.04,1.04,.56,.38,1.24,.53,1.92,.4,.67-.13,1.25-.51,1.64-1.08,.38-.57,.52-1.25,.4-1.92s-.51-1.25-1.07-1.63c-2.62-1.78-5.77-2.43-8.88-1.83-3.11,.6-5.8,2.38-7.57,5-4.37,6.48-2.68,15.32,3.78,19.72,3.78,2.56,8.32,3.5,12.79,2.63,4.48-.86,8.35-3.42,10.91-7.21,6.39-9.47,3.91-22.39-5.53-28.81-5.57-3.78-12.28-5.17-18.89-3.9-6.62,1.28-12.35,5.06-16.13,10.66-9.54,14.14-5.84,33.44,8.26,43.02,6.72,4.56,13.76,6.88,20.94,6.88,11.42,0,22.38-5.86,31.74-16.99,.23-.31,22.09-30.63,36.73-56.96,6.8,3.65,13.77,7.91,20.97,12.94,2.73,2.25,4.69,3.46,5.3,3.81,7.33,5.41,14.84,11.58,22.32,18.34,2.34,2.12,5.44,3.29,8.73,3.29,7.33,0,13.29-5.97,13.29-13.31,0-3.12-1.07-6.09-3.04-8.47Zm-65.9-21.52c-.22-.57-.62-1.05-1.16-1.34-.57-.31-1.22-.38-1.85-.22-33.42-17.04-62.6-19.5-93.29-22.09-9.25-.78-18.82-1.58-28.55-2.83-16.69-2.14-33.59-16.67-33.59-40.31v-52.06c0-18.31,14.87-33.21,33.15-33.21h83.69c18.28,0,33.15,14.9,33.15,33.21v68.54c0,.93-.04,1.9-.14,3v.2c.21,23.79,7.77,40.31,14.8,50.54-2.09-1.21-4.16-2.35-6.21-3.44Zm-3.34-50.77v-19.8c6.56,2.04,15.38,.53,25.66-4.42,2.61-1.26,5.58-2.76,8.82-4.47,9.71,4.07,19.15,10.91,23.82,14.55-7.43,3.19-22.78,9.63-34.46,13.59-10.67,3.61-18.91,3.8-23.84,.56Zm0-25.27v-13.86c7.34,.88,17.88-.5,28.37-11.01,1.98-1.98,4.21-4.13,6.63-6.4,8.45,3.12,16.64,7.58,20.9,10.04-6.98,4.07-21.38,12.32-32.47,17.66-10.07,4.85-18.16,6.08-23.44,3.56Zm0-19.01v-15.27c10.68,.52,18.41-5.49,27.31-15.27,1.95-2.14,4-4.8,6.08-7.9,7.25,.37,13.67,3.77,16.95,5.84-5.36,4.5-16.62,14.16-25.59,23.14-9.29,9.3-18.45,10.36-24.75,9.46Zm20.13,73.32c-6.61,1.23-12.19,1.38-16.61,.43-2.17-7.42-3.39-15.4-3.63-23.76,6.24,2.63,15.03,2.15,25.59-1.42,2.24-.76,4.73-1.65,7.4-2.64,9.35,5.47,18.65,14.26,23.21,18.84-7.8,2.11-23.84,6.3-35.95,8.55Zm3.4-107.3c-8.35,9.17-14.65,14.12-23.53,13.59v-3.4c0-3.37-.44-6.7-1.3-9.93,7.3-2.16,13.57-9.72,18.18-21.96,1.22-3.22,2.56-7.04,4-11.37,9.12-1.58,18.06-1.58,22.63-1.44-3.1,7.1-11.4,25.07-19.98,34.5Zm-11.44-23.5c-4.02,10.67-9.34,17.34-15.05,18.92-2.54-6.07-6.6-11.38-11.8-15.45,2.22-4.49,3.68-10.26,4.37-17.17,.25-2.48,.47-5.27,.68-8.31,9.63-6.89,25.31-11.31,33.16-13.21-2.25,7.79-7,23.72-11.35,35.22Zm-27.58-14.2c-.59,5.96-1.78,10.93-3.56,14.77-5.83-3.4-12.45-5.2-19.23-5.2h-4.03c.68-2.78,1.19-5.82,1.5-9.07,.51-5.15,.94-11.57,1.28-19.11,7.89-8,19.78-15.02,25.86-18.35-.16,8.1-.62,24.7-1.84,36.95Zm-29.05-20.74l-.83,.92,.76,.69c-.34,7.56-.77,14-1.28,19.13-.34,3.5-.91,6.71-1.7,9.57h-23.84c.68-2.77,1.19-5.81,1.5-9.07,.54-5.46,.99-12.32,1.34-20.41,7.86-7.47,18.88-13.95,24.54-17.05-.08,3.73-.22,9.68-.5,16.22Zm-29.07-1.4l-.6,.61,.56,.55c-.35,8.35-.8,15.4-1.35,20.97-.35,3.51-.92,6.73-1.7,9.57h-24.02c.68-2.77,1.19-5.81,1.51-9.07,.54-5.42,.98-12.22,1.33-20.23,7.87-7.54,19-14.09,24.72-17.22-.08,3.82-.21,9.07-.44,14.82Zm-30.7,22.13c-.35,3.52-.92,6.74-1.7,9.57h-15.96c-3.77,0-7.48,.55-11.05,1.63-1.48-31.29,21.38-44.6,30.56-48.66-.16,8.09-.61,24.98-1.85,37.46Zm-33.72,13.11c-13.09,6.09-21.68,19.06-22.18,33.45-4.54-.55-12.63-1.33-22.11-1.33-1.59,0-3.18,.02-4.74,.07,.39-23.75,10.24-41.24,29.28-52.01,9.52-5.38,19.08-7.71,24.9-8.7-4.16,8.48-5.89,18.06-5.14,28.52ZM82.1,186.93c12.88-5.03,21.87-6.44,29.81-7.69,10.58-1.66,19.11-3.02,31.28-11.96,1.32,2.58,2.88,5.04,4.66,7.33,7.05,9.06,16.76,14.61,28.08,16.06,9.82,1.26,19.45,2.07,28.78,2.85,29.76,2.51,58.22,4.92,90.51,21.13-4.64,8.34-10.02,17.08-15.19,25.13-43.35-26.44-102.65-35.41-145.1-38.24-34.62-2.32-63.79-1.07-77.05-.22,6.43-5.79,14.57-10.63,24.24-14.4Zm237.05,8.45c4.55-.85,10.06-2.04,16.41-3.56,7.52,23.94,20.2,37.74,24.91,42.24l-.1,.12,1.91,1.59c1.88,1.56,2.96,3.86,2.96,6.31,0,4.52-3.67,8.2-8.18,8.2-2.02,0-3.9-.7-5.3-1.96-9.35-8.45-18.73-15.99-27.88-22.4-2.6-2.15-6.5-5.79-10.38-10.98-4.15-5.54-7.54-11.82-10.09-18.69,4.51,.52,9.8,.23,15.74-.88ZM107.01,95.94l1-.05c13-.65,24.68,.52,29.87,1.18v9.6c-20.37,.12-41.59,3.58-41.82,3.62-16.28,3.28-25.18,14.16-23.82,29.1,.54,5.86,3.31,11.15,7.82,14.9,3.96,3.29,8.76,5.04,13.87,5.04,.68,0,1.36-.03,2.04-.09,9.87-.91,17.16-9.72,16.25-19.64-.36-3.98-2.25-7.58-5.3-10.13-3.05-2.55-6.92-3.77-10.89-3.4-6.82,.63-11.86,6.72-11.23,13.57,.26,2.79,1.58,5.31,3.72,7.1,2.14,1.79,4.86,2.65,7.64,2.39,4.87-.45,8.47-4.79,8.02-9.68-.06-.68-.39-1.29-.91-1.73-.53-.44-1.19-.64-1.87-.58-.68,.06-1.29,.39-1.73,.91s-.64,1.19-.58,1.87c.19,2.09-1.33,3.94-3.4,4.13-1.42,.13-2.8-.3-3.9-1.22-1.1-.92-1.78-2.22-1.91-3.65-.37-4.05,2.6-7.65,6.61-8.02,2.6-.24,5.14,.56,7.14,2.23,2.01,1.68,3.25,4.05,3.49,6.68,.65,7.12-4.57,13.44-11.63,14.09-4.44,.4-8.75-.94-12.17-3.78-3.46-2.88-5.59-6.94-6-11.44-1.12-12.25,6.05-20.86,19.65-23.6,.21-.04,21.02-3.37,40.9-3.53v33.52c0,5.91,1.1,11.75,3.17,17.2-11.65,8.8-19.41,10.03-29.94,11.69-8.19,1.29-17.47,2.75-30.87,7.98-23.45,9.15-33.26,22.24-36.93,28.88-13.02-23.21-16.73-44.44-11.03-63.14,8.08-26.49,32.6-40.37,42.77-45.11,8.37-3.9,19.12-6.25,31.95-7v.15Z"/><polygon class="cls-1" points="60.21 324.35 35.57 384.85 11.03 324.35 5.37 324.35 0 390.51 4.41 390.51 8.92 330.96 33.56 390.89 37.39 390.89 62.03 330.96 66.54 390.51 71.14 390.51 65.78 324.35 60.21 324.35"/><path class="cls-1" d="M118.7,323.97l-26.27,66.54h4.79l8.72-22.63h30.3l9.11,23.3,4.6-1.05-26.27-66.16h-4.98Zm-11.03,39.79l13.42-34.62,13.62,34.62h-27.04Z"/><path class="cls-1" d="M400.2,323.97h-4.98l-26.27,66.54h4.79l8.73-22.63h30.3l9.1,23.3,4.6-1.05-26.27-66.16Zm-16.01,39.79l13.43-34.62,13.62,34.62h-27.04Z"/><polygon class="cls-1" points="341.82 381.88 302.31 324.35 297.61 324.35 297.61 390.51 302.02 390.51 302.02 331.35 342.58 390.51 346.23 390.51 346.23 324.35 341.82 324.35 341.82 381.88"/><path class="cls-1" d="M243.63,323.97l-26.27,66.54h4.8l8.72-22.63h30.3l9.11,23.3,4.6-1.05-26.27-66.16h-4.99Zm-11.03,39.79l13.43-34.62,13.62,34.62h-27.04Z"/><polygon class="cls-1" points="183.71 358.29 162.42 323.68 157.82 324.64 181.31 362.13 181.31 390.51 185.91 390.51 185.91 362.03 209.5 324.35 204.51 324.35 183.71 358.29"/></g></g></svg>