<?xml version="1.0" encoding="UTF-8"?><svg id="Layer_2" xmlns="http://www.w3.org/2000/svg" viewBox="0 0 531.73 129.5"><defs><style>.cls-1{fill:#fff;}</style></defs><g id="Layer_1-2"><g><path class="cls-1" d="M194.76,40.33l-31.17,31.19L117.67,25.61c-11.2-11.2-29.36-11.2-40.56,0L31.19,71.53C12,52.35,0,40.33,0,40.33c53.8-53.78,140.98-53.78,194.76,0"/><path class="cls-1" d="M141.41,93.69l-29.99,29.99c-7.74,7.76-20.3,7.76-28.06,0l-29.99-29.99c24.37-24.06,63.68-24.06,88.05,0"/><path class="cls-1" d="M293.1,75.29v34.52c0,3.07,2.28,5.48,5.35,5.48s5.35-2.41,5.35-5.48v-34.25c0-19.4-12.98-30.91-29.43-30.91s-29.3,11.51-29.3,30.91v34.25c0,3.07,2.28,5.48,5.35,5.48s5.36-2.41,5.36-5.48v-34.52c0-13.65,8.29-20.73,18.59-20.73s18.73,7.08,18.73,20.73"/><path class="cls-1" d="M375.02,95.23c-1.87,0-3.07,1.06-4.54,2.41-4.15,4.68-10.17,8.03-17.79,8.03-13.79,0-24.48-11.37-24.48-25.56s10.41-25.1,23.67-25.52c.28-.03,.54-.03,.82-.03,2.04,0,4.22,.29,6.3,.9,.02,0,.04,0,.05,.01,2.49,.65,4.8,1.71,6.9,3.14,.71,.47,1.39,.99,2.04,1.55l-23.18,23.18c-1.97,1.97-1.97,5.17,0,7.14,.99,.98,2.28,1.48,3.57,1.48s2.59-.5,3.57-1.48l26.66-26.66c1.81-1.81,1.98-4.7,.38-6.71-1.06-1.34-2.22-2.59-3.45-3.72-3.58-3.32-7.83-5.78-12.46-7.24-.14-.04-.27-.08-.4-.12-3.07-.87-6.43-1.37-9.98-1.37-.28,0-.57,0-.85,0-19.66,.43-34.48,15.92-34.48,35.44s15.39,35.46,35.32,35.46c11.23,0,20.46-4.96,26.08-11.65,.94-1.06,1.61-2.54,1.61-3.61,0-2.95-2.28-5.08-5.35-5.08"/><path class="cls-1" d="M424.12,105.66c-13.79,0-24.48-11.51-24.48-25.56s10.7-25.55,24.48-25.55,24.35,11.37,24.35,25.55-10.57,25.56-24.35,25.56m0-61.01c-20.07,0-35.32,15.66-35.32,35.45s15.25,35.46,35.32,35.46,35.18-15.66,35.18-35.46-15.12-35.45-35.18-35.45"/><path class="cls-1" d="M502.29,44.65c-16.32,0-29.3,11.51-29.3,30.91v34.25c0,3.07,2.28,5.48,5.36,5.48s5.35-2.4,5.35-5.48v-34.52c0-13.65,8.3-20.73,18.59-20.73s18.73,7.08,18.73,20.73v34.52c0,3.07,2.28,5.48,5.35,5.48s5.36-2.4,5.36-5.48v-34.25c0-19.4-12.99-30.91-29.44-30.91"/></g></g></svg>