<svg width="53" height="53" viewBox="0 0 53 53" fill="none" xmlns="http://www.w3.org/2000/svg">
<path d="M0 19.0217C0 12.3635 0 9.03437 1.29577 6.49127C2.43557 4.2543 4.2543 2.43557 6.49127 1.29577C9.03437 0 12.3635 0 19.0217 0H33.5383C40.1966 0 43.5257 0 46.0687 1.29577C48.3056 2.43557 50.1244 4.2543 51.2642 6.49127C52.56 9.03437 52.56 12.3635 52.56 19.0217V33.5383C52.56 40.1966 52.56 43.5257 51.2642 46.0687C50.1244 48.3056 48.3056 50.1244 46.0687 51.2642C43.5257 52.56 40.1966 52.56 33.5383 52.56H19.0217C12.3635 52.56 9.03437 52.56 6.49127 51.2642C4.2543 50.1244 2.43557 48.3056 1.29577 46.0687C0 43.5257 0 40.1966 0 33.5383V19.0217Z" fill="white"/>
<path d="M22.1302 32.9698H13.9855L12.3283 38.2597C12.2823 38.4559 12.1017 38.5948 11.9052 38.5852H7.77989C7.54465 38.5852 7.46238 38.4527 7.53309 38.1875L14.5848 17.4435C14.6554 17.2267 14.7259 17.0146 14.7964 16.7372C14.8887 16.2546 14.9359 15.7642 14.9375 15.2726C14.9173 15.1273 15.0427 14.9986 15.1842 15.0194H20.7905C20.9547 15.0194 21.0486 15.0797 21.0724 15.2002L29.0764 38.2235C29.1468 38.4649 29.0762 38.5854 28.8648 38.5852H24.281C24.1203 38.6034 23.9668 38.4933 23.9285 38.332L22.1302 32.9698ZM15.2548 28.5095H20.8258C19.9105 25.3818 18.8775 22.2954 18.0403 19.1433C17.0916 22.4129 16.2155 25.4452 15.2548 28.5095Z" fill="black"/>
<path d="M35.029 30.9272C35.3532 33.6132 37.6087 34.8938 40.1063 34.8392C41.5147 34.8116 43.0198 34.5929 44.3359 34.0604C44.453 33.9645 44.5121 34.0243 44.5121 34.2413V37.6767C44.5232 37.8554 44.4485 38.0151 44.3006 38.1107C42.6648 38.8537 40.7873 39.0778 39.0132 39.0493C33.7238 39.0493 30.0914 35.3224 30.0929 29.9001C30.079 24.7616 33.4126 20.4265 38.5901 20.4265C42.9791 20.3127 46.0176 23.8266 46.0298 28.2005C46.0298 28.997 45.9853 29.7965 45.8888 30.5871C45.8701 30.75 45.7313 30.8766 45.5714 30.8766C42.0662 30.8766 38.5439 30.9272 35.029 30.9272ZM35.029 27.6329C36.9825 27.6329 38.9473 27.7019 40.8996 27.6148C41.193 27.5848 41.4109 27.529 41.4109 27.224C41.3702 25.6025 40.0017 24.2688 38.4139 24.331C36.4954 24.212 35.2676 25.8315 35.029 27.6329Z" fill="black"/>
</svg>
