<svg width="53" height="53" viewBox="0 0 53 53" fill="none" xmlns="http://www.w3.org/2000/svg">
<path d="M0 19.0217C0 12.3635 0 9.03437 1.29577 6.49127C2.43557 4.2543 4.2543 2.43557 6.49127 1.29577C9.03437 0 12.3635 0 19.0217 0H33.5383C40.1966 0 43.5257 0 46.0687 1.29577C48.3056 2.43557 50.1244 4.2543 51.2642 6.49127C52.56 9.03437 52.56 12.3635 52.56 19.0217V33.5383C52.56 40.1966 52.56 43.5257 51.2642 46.0687C50.1244 48.3056 48.3056 50.1244 46.0687 51.2642C43.5257 52.56 40.1966 52.56 33.5383 52.56H19.0217C12.3635 52.56 9.03437 52.56 6.49127 51.2642C4.2543 50.1244 2.43557 48.3056 1.29577 46.0687C0 43.5257 0 40.1966 0 33.5383V19.0217Z" fill="white"/>
<path d="M24.225 9L23.525 10.2119L32.1 25.065L41.375 9H24.225ZM42.95 9L30.4419 30.665H44V10.0369C43.9965 9.76068 43.8844 9.49697 43.6879 9.30288C43.4913 9.1088 43.2262 8.99998 42.95 9ZM22.7375 11.5769L17.4 20.8213H28.075L22.7375 11.5769ZM25.0169 22.16H24.9906C24.4656 22.1673 23.9698 22.475 23.7088 22.9227L22.1294 25.6644L22.1177 25.6848C21.9916 25.9124 21.9254 26.1683 21.9254 26.4285C21.9254 26.6888 21.9916 26.9447 22.1177 27.1723C22.649 28.093 23.1803 29.0137 23.7117 29.9344C23.98 30.3865 24.4846 30.6635 25.0023 30.665C25.0052 30.665 27.0148 30.6679 28.0167 30.6635C28.5417 30.6562 29.036 30.3646 29.2971 29.9169C29.8279 28.9967 30.3631 28.0779 30.891 27.1548C31.1477 26.6969 31.139 26.1296 30.8808 25.6804L30.8663 25.6585L29.2942 22.9315L29.2854 22.9183C29.1536 22.6936 28.9668 22.506 28.7426 22.3734C28.5183 22.2407 28.264 22.1673 28.0035 22.16H27.986H25.0169ZM16.6125 22.1833L9 35.3696V35.9383L9.00438 43.0419C9.02609 43.2896 9.13506 43.5216 9.31186 43.6966C9.48866 43.8715 9.72181 43.978 9.96979 43.9971L22.5625 22.1833H16.6125ZM20.9 27.7906L11.5317 44H30.2567L20.9 27.7906ZM24.9206 32.0285L31.8331 44H42.95C43.2285 44 43.4956 43.8894 43.6925 43.6925C43.8894 43.4956 44 43.2285 44 42.95V32.03L24.9206 32.0285Z" fill="black"/>
</svg>
