<svg width="53" height="53" viewBox="0 0 53 53" fill="none" xmlns="http://www.w3.org/2000/svg">
<path d="M0 19.0217C0 12.3635 0 9.03437 1.29577 6.49127C2.43557 4.2543 4.2543 2.43557 6.49127 1.29577C9.03437 0 12.3635 0 19.0217 0H33.5383C40.1966 0 43.5257 0 46.0687 1.29577C48.3056 2.43557 50.1244 4.2543 51.2642 6.49127C52.56 9.03437 52.56 12.3635 52.56 19.0217V33.5383C52.56 40.1966 52.56 43.5257 51.2642 46.0687C50.1244 48.3056 48.3056 50.1244 46.0687 51.2642C43.5257 52.56 40.1966 52.56 33.5383 52.56H19.0217C12.3635 52.56 9.03437 52.56 6.49127 51.2642C4.2543 50.1244 2.43557 48.3056 1.29577 46.0687C0 43.5257 0 40.1966 0 33.5383V19.0217Z" fill="white"/>
<path d="M26.5 7C15.7311 7 7 15.7311 7 26.5C7 37.2689 15.7311 46 26.5 46C37.2689 46 46 37.2689 46 26.5C46 15.7311 37.2689 7 26.5 7ZM18.3132 19.48C19.5385 19.48 20.4859 20.3721 20.5964 21.43C20.7085 22.3774 20.3185 23.2126 19.2606 23.7148C18.7033 23.9926 18.4806 23.9942 18.3685 23.8269C18.3132 23.7147 18.3685 23.6043 18.4806 23.4921C19.4833 22.6569 19.4832 21.9874 19.3711 21.0416C19.3159 20.4274 18.8706 20.0374 18.4238 20.0374C16.4738 20.0374 13.6885 24.3826 14.0785 27.5595C14.2459 28.7848 14.9706 30.2343 16.5306 30.2343C17.0311 30.2343 17.5869 30.0669 18.0906 29.8442C18.9031 29.4152 19.389 29.0805 19.8732 28.5443C19.7546 27.1061 21.0172 25.2195 22.8811 25.2195C23.718 25.2195 24.3859 25.5526 24.4411 26.1669C24.5516 27.0021 23.8285 27.1126 23.6059 27.1126C23.3832 27.1126 22.9916 27.0574 22.9916 26.8364C22.9364 26.6121 23.4938 26.7226 23.4385 26.2221C23.3816 25.8874 23.0485 25.7769 22.7138 25.7769C21.5438 25.7769 20.8759 27.3921 21.0416 28.3948C21.0985 28.8416 21.3211 29.2869 21.768 29.2869C22.1011 29.2869 22.6032 28.7831 22.7706 28.06C22.8811 27.5595 23.328 27.2248 23.718 27.2248C23.8838 27.2248 23.9943 27.28 24.0511 27.5026V27.7269C23.9959 27.9495 23.8285 28.6174 23.8854 28.7848C23.8854 28.8969 23.9406 29.0626 24.1616 29.0626C24.3111 29.0626 24.8701 28.7701 25.4243 28.3168C25.6144 27.358 25.8354 26.2075 25.8354 26.1116C25.8906 25.7216 26.058 25.3316 26.838 25.3316C27.0054 25.3316 27.1159 25.3869 27.1711 25.6095V25.8338L26.9501 26.8364C27.6733 25.889 28.7327 25.2211 29.4006 25.2211C29.6801 25.2211 29.9027 25.3869 29.9027 25.6664C29.9027 25.8338 29.9027 26.1116 29.7906 26.3911C29.568 27.0037 29.2885 27.9511 29.1211 28.7864C29.1211 29.009 29.178 29.2316 29.4575 29.2316C29.7354 29.2316 30.5706 28.8969 31.2385 28.0064L31.2499 27.9999C31.2466 27.8894 31.2385 27.7821 31.2385 27.6716C31.2385 27.0037 31.2954 26.4464 31.4075 26.0564C31.518 25.6111 32.0754 25.2211 32.4101 25.2211C32.5775 25.2211 32.7433 25.3332 32.7433 25.499C32.7433 25.5559 32.7432 25.6664 32.688 25.7216C32.4654 26.4464 32.298 27.1142 32.298 27.7837C32.298 28.1737 32.3533 28.7295 32.4638 29.0643C32.4638 29.1195 32.5206 29.1764 32.5775 29.1764C32.688 29.1764 33.468 28.4533 34.0237 27.5059C33.5232 27.1711 33.2437 26.6138 33.2437 25.9459C33.2437 24.7759 33.9685 24.1633 34.638 24.1633C35.1954 24.1633 35.6406 24.5532 35.6406 25.3332C35.6406 25.8337 35.4732 26.3895 35.1954 26.8932H35.3611C35.5379 26.899 35.7139 26.8672 35.8774 26.8C36.041 26.7328 36.1885 26.6316 36.3101 26.5032C36.3613 26.4188 36.4373 26.3524 36.5279 26.3131C37.0722 25.6225 37.8766 25.1106 38.8191 25.1106C39.5991 25.1106 40.3206 25.4438 40.3775 26.0564C40.488 26.8933 39.7632 27.0606 39.5406 27.0606L39.5374 27.0574C39.3131 27.0574 38.9247 27.0005 38.9247 26.7779C38.9247 26.5552 39.4269 26.6674 39.37 26.1669C39.3148 25.8321 38.98 25.72 38.6453 25.72C37.5305 25.72 36.809 27.1679 36.9747 28.3379C37.03 28.7847 37.2526 29.2852 37.6979 29.2852C38.0326 29.2852 38.5347 28.7848 38.7574 28.06C38.8679 27.6148 39.3147 27.2248 39.7047 27.2248C39.8721 27.2248 39.981 27.28 40.0379 27.5026C40.0379 27.6147 40.0379 27.8374 39.8153 28.5621C39.539 29.0626 39.5374 29.3421 39.5926 29.5647C39.6479 30.01 39.8705 30.3447 40.0947 30.5121C40.15 30.5674 40.2053 30.6779 40.2053 30.6779C40.2053 30.79 40.15 30.9021 39.9826 30.9021C39.9274 30.9021 39.8721 30.9021 39.8153 30.8452C38.98 30.5121 38.6453 29.9547 38.5331 29.3974C38.2 29.7874 37.81 30.01 37.3631 30.01C36.64 30.01 35.9169 29.3421 35.8031 28.5053C35.7712 28.1491 35.8127 27.7901 35.925 27.4506C35.5951 27.6619 35.2393 27.7805 34.9126 27.7805H34.6364C33.91 28.84 33.13 29.5647 32.5726 29.8979C32.3834 29.9986 32.1742 30.0563 31.96 30.0669C31.8495 30.0669 31.6821 30.01 31.6269 29.8979C31.4725 29.6509 31.3734 29.2609 31.3132 28.814C30.5316 29.6704 29.4526 30.1221 28.9521 30.1221C28.3947 30.1221 28.0616 29.7874 28.0064 29.2284V28.6174C28.1721 27.3921 28.619 26.6674 28.619 26.4447C28.6175 26.4154 28.6052 26.3875 28.5846 26.3666C28.5639 26.3456 28.5362 26.3329 28.5069 26.331C28.1169 26.331 26.8364 27.67 26.6121 28.5621L26.4447 29.2852C26.3342 29.7874 25.8321 30.1221 25.499 30.1221C25.3316 30.1221 25.2195 30.0653 25.1643 29.8426V29.62L25.239 29.2414C24.5321 29.7451 23.8253 30.0669 23.4921 30.0669C22.9916 30.0669 22.7121 29.7874 22.6569 29.3974C22.3221 29.8426 21.9337 30.0669 21.4316 30.0669C20.8596 30.0669 20.3006 29.6769 20.0309 29.1033C19.6344 29.5501 19.181 30.0019 18.6464 30.3448C17.8664 30.8469 16.9759 31.2369 15.9164 31.2369C14.9706 31.2369 14.1338 30.7347 13.6885 30.2895C13.019 29.6769 12.6306 28.7295 12.5738 27.8374C12.2406 25.1074 13.9111 21.5974 16.4737 20.0374C17.088 19.7042 17.7006 19.48 18.3132 19.48ZM34.1895 24.8279C34.0205 24.8279 33.91 25.1074 33.91 25.3853C33.91 25.8305 34.1326 26.3326 34.4121 26.6121C34.5211 26.3081 34.5771 25.9877 34.5779 25.6648C34.5779 25.1074 34.3569 24.8279 34.1895 24.8279Z" fill="black"/>
</svg>
