<svg width="53" height="53" viewBox="0 0 53 53" fill="none" xmlns="http://www.w3.org/2000/svg">
<path d="M0 19.0217C0 12.3635 0 9.03437 1.29577 6.49127C2.43557 4.2543 4.2543 2.43557 6.49127 1.29577C9.03437 0 12.3635 0 19.0217 0H33.5383C40.1966 0 43.5257 0 46.0687 1.29577C48.3056 2.43557 50.1244 4.2543 51.2642 6.49127C52.56 9.03437 52.56 12.3635 52.56 19.0217V33.5383C52.56 40.1966 52.56 43.5257 51.2642 46.0687C50.1244 48.3056 48.3056 50.1244 46.0687 51.2642C43.5257 52.56 40.1966 52.56 33.5383 52.56H19.0217C12.3635 52.56 9.03437 52.56 6.49127 51.2642C4.2543 50.1244 2.43557 48.3056 1.29577 46.0687C0 43.5257 0 40.1966 0 33.5383V19.0217Z" fill="white"/>
<path d="M25.4702 33.0308H17.3255L15.6683 38.3106C15.6223 38.5068 15.4418 38.6457 15.2452 38.6359H11.1199C10.8846 38.6359 10.8024 38.5034 10.8731 38.2381L17.9248 17.4082C17.9954 17.1912 18.066 16.9442 18.1364 16.667C18.2287 16.1843 18.2759 15.694 18.2776 15.2024C18.2573 15.0571 18.3849 14.9288 18.5242 14.9492H24.1305C24.2947 14.9492 24.3886 15.0094 24.4124 15.13L32.4164 38.2744C32.4868 38.5156 32.4164 38.6361 32.2048 38.6359H27.621C27.4603 38.6543 27.3068 38.5441 27.2685 38.3829L25.4702 33.0308ZM18.5948 28.4742H24.1658C23.2505 25.3465 22.2175 22.2599 21.3803 19.108C20.477 22.2654 19.4915 25.4099 18.5948 28.4742Z" fill="black"/>
<path d="M37.1759 18.7823C36.8162 18.7971 36.4577 18.7339 36.1234 18.5969C35.7892 18.4598 35.487 18.2518 35.2366 17.9868C34.9869 17.7101 34.7928 17.3857 34.6658 17.0319C34.5387 16.6782 34.4811 16.3022 34.4961 15.9255C34.4833 15.5525 34.5473 15.181 34.684 14.8352C34.8208 14.4893 35.0271 14.1769 35.2895 13.9184C35.5493 13.6626 35.8561 13.4621 36.1921 13.3287C36.5279 13.1952 36.8862 13.1314 37.2463 13.1409C38.0927 13.1409 38.7566 13.4001 39.2385 13.9184C39.4818 14.1878 39.6708 14.5037 39.7949 14.8481C39.9188 15.1925 39.9754 15.5587 39.9612 15.9255C39.976 16.3035 39.9165 16.681 39.7862 17.0351C39.6561 17.3891 39.4577 17.7127 39.2032 17.9868C38.9372 18.2558 38.6196 18.4653 38.2708 18.6023C37.9219 18.7391 37.5491 18.8005 37.1759 18.7823ZM34.7429 38.2742V20.9883C34.7429 20.7713 34.8366 20.6628 35.025 20.6628H39.362C39.5497 20.6628 39.6438 20.7713 39.6439 20.9883V38.2742C39.6439 38.5156 39.5499 38.6361 39.362 38.6359H35.0603C34.8488 38.6359 34.7429 38.5154 34.7429 38.2742Z" fill="black"/>
</svg>
