<svg width="53" height="53" viewBox="0 0 53 53" fill="none" xmlns="http://www.w3.org/2000/svg">
<path d="M0 19.0217C0 12.3635 0 9.03437 1.29577 6.49127C2.43557 4.2543 4.2543 2.43557 6.49127 1.29577C9.03437 0 12.3635 0 19.0217 0H33.5383C40.1966 0 43.5257 0 46.0687 1.29577C48.3056 2.43557 50.1244 4.2543 51.2642 6.49127C52.56 9.03437 52.56 12.3635 52.56 19.0217V33.5383C52.56 40.1966 52.56 43.5257 51.2642 46.0687C50.1244 48.3056 48.3056 50.1244 46.0687 51.2642C43.5257 52.56 40.1966 52.56 33.5383 52.56H19.0217C12.3635 52.56 9.03437 52.56 6.49127 51.2642C4.2543 50.1244 2.43557 48.3056 1.29577 46.0687C0 43.5257 0 40.1966 0 33.5383V19.0217Z" fill="white"/>
<path d="M37.506 37.3914C36.0316 38.7332 37.6723 40.0928 39.1262 39.2267C39.4499 38.8941 39.1174 37.7252 37.5075 37.3913L37.506 37.3914ZM16.3431 39.5579C17.4864 40.5613 19.2553 39.3081 19.7847 37.9086C18.6764 36.416 14.5246 37.9633 16.3431 39.5578V39.5579ZM38.1126 36.026C38.1126 36.691 42.9455 37.1269 42.9455 35.8693C42.4819 35.0031 41.5912 34.4246 40.5672 34.4246C39.4827 34.4246 38.5476 35.0736 38.1196 36.0091L38.1126 36.026ZM23.2715 10.2016L10.3509 23.5991C5.9862 29.0773 13.3229 28.4404 16.467 30.0172C17.5958 31.1861 12.1432 32.0491 13.2718 33.2181C14.3991 34.387 20.0938 35.4702 21.224 36.6377C22.3513 37.8066 18.9141 39.0464 20.0428 40.2139C21.1701 41.3843 23.7804 40.276 24.269 42.9745C24.616 44.9015 28.9706 43.802 31.0997 42.2237C32.2284 41.0548 28.9414 41.1641 30.0701 39.9952C32.8745 37.0884 35.4877 38.94 36.4473 36.0258C36.9213 34.5865 32.3174 33.8077 33.4476 32.6387C36.6938 30.7176 47.9125 29.4674 42.5882 24.0735L29.1981 10.2016C28.429 9.45773 27.385 9 26.2354 9C25.0859 9 24.0419 9.45773 23.2713 10.2031L23.2729 10.2015L23.2715 10.2016ZM28.415 11.1428L33.5263 16.4038C33.7675 16.6743 33.9151 17.0345 33.9151 17.4297C33.9151 17.6965 33.8478 17.9474 33.7295 18.1659L33.7334 18.1579L31.196 16.1009L30.6972 19.1467L28.5754 18.0131L25.1804 20.1855L24.0561 15.6044L22.2318 18.8023H19.442C18.3046 18.8023 18.1718 17.3393 19.2043 16.293C21.0083 14.3202 23.0791 12.3089 24.2048 11.1429C24.7481 10.6072 25.491 10.2767 26.31 10.2767C27.129 10.2767 27.8717 10.6072 28.4157 11.1436L28.415 11.1429V11.1428ZM20.1798 30.7444C20.5254 30.9616 25.7476 32.0375 27.0236 32.2517C27.4654 32.3463 27.152 32.8074 26.5424 33.1191C25.1672 33.4901 18.497 30.7444 20.1798 30.7444Z" fill="black"/>
</svg>
