<svg width="53" height="53" viewBox="0 0 53 53" fill="none" xmlns="http://www.w3.org/2000/svg">
<path d="M0 19.0217C0 12.3635 0 9.03437 1.29577 6.49127C2.43557 4.2543 4.2543 2.43557 6.49127 1.29577C9.03437 0 12.3635 0 19.0217 0H33.5383C40.1966 0 43.5257 0 46.0687 1.29577C48.3056 2.43557 50.1244 4.2543 51.2642 6.49127C52.56 9.03437 52.56 12.3635 52.56 19.0217V33.5383C52.56 40.1966 52.56 43.5257 51.2642 46.0687C50.1244 48.3056 48.3056 50.1244 46.0687 51.2642C43.5257 52.56 40.1966 52.56 33.5383 52.56H19.0217C12.3635 52.56 9.03437 52.56 6.49127 51.2642C4.2543 50.1244 2.43557 48.3056 1.29577 46.0687C0 43.5257 0 40.1966 0 33.5383V19.0217Z" fill="white"/>
<path d="M11.2629 38.5118V15.399C11.2629 15.2418 11.3286 15.1519 11.4819 15.1519C13.745 15.1519 16.0071 15.0171 18.2708 15.0171C21.9442 15.0171 25.9215 16.2731 27.3156 20.1158C27.6441 21.0593 27.8193 22.0251 27.8193 23.0359C27.8193 24.9677 27.3813 26.5623 26.5053 27.8202C24.0582 31.3338 19.817 31.2792 16.0152 31.2792V38.4895C16.0449 38.7029 15.863 38.8039 15.6867 38.8039H11.5257C11.3505 38.8039 11.2629 38.714 11.2629 38.5118ZM16.037 19.487V27.034C17.5445 27.1444 19.1219 27.1564 20.5703 26.6748C22.1694 26.2134 23.0451 24.8293 23.0451 23.1707C23.0894 21.7574 22.3194 20.4014 21.0084 19.8913C19.5775 19.2963 17.5817 19.2606 16.037 19.487Z" fill="black"/>
<path d="M41.4787 25.543C40.816 25.1937 40.1102 24.9382 39.3806 24.7835C38.4431 24.563 34.7455 23.7903 34.744 25.7238C34.7769 26.8032 36.4903 27.332 37.2474 27.6404C39.9052 28.5528 42.9128 30.1839 42.8537 33.4627C42.9349 37.5444 38.9802 39.1762 35.5903 39.1765C33.8256 39.1947 31.9871 38.9214 30.372 38.1638C30.2177 38.0822 30.1186 37.9078 30.1251 37.7298V33.8242C30.1077 33.6677 30.2759 33.5308 30.4073 33.6435C31.9897 34.6004 33.8653 35.0652 35.6961 35.09C36.5042 35.09 38.1058 35.0117 38.0938 33.8242C38.0938 32.6848 36.1778 32.1609 35.414 31.8714C34.3068 31.4763 33.2572 30.9287 32.2936 30.2442C30.947 29.2836 30.1022 27.7436 30.1251 26.0493C30.1173 22.206 33.7576 20.4809 37.036 20.4802C38.5685 20.4674 40.2144 20.581 41.641 21.2035C41.8462 21.2637 41.8886 21.48 41.8879 21.6735V25.326C41.9008 25.5528 41.6491 25.6299 41.4787 25.543Z" fill="black"/>
</svg>
